<?xml version="1.0" standalone="no"?>
<!DOCTYPE svg PUBLIC "-//W3C//DTD SVG 20010904//EN"
 "http://www.w3.org/TR/2001/REC-SVG-20010904/DTD/svg10.dtd">
<svg version="1.0" xmlns="http://www.w3.org/2000/svg"
 width="512.000000pt" height="512.000000pt" viewBox="0 0 512.000000 512.000000"
 preserveAspectRatio="xMidYMid meet">
<metadata>
Created by potrace 1.11, written by Peter Selinger 2001-2013
</metadata>
<g transform="translate(0.000000,512.000000) scale(0.100000,-0.100000)"
fill="#000000" stroke="none">
<path d="M555 5110 c-222 -33 -395 -162 -491 -364 -68 -143 -65 -28 -62 -2227
3 -2205 -2 -2019 69 -2162 67 -133 166 -228 303 -293 133 -63 134 -63 1129
-64 l897 0 0 450 0 450 -26 0 c-14 0 -70 9 -124 20 -584 119 -1066 547 -1250
1108 -62 192 -74 275 -74 517 0 189 3 234 22 322 145 669 645 1169 1302 1303
54 11 110 20 124 20 l26 0 0 465 0 465 -897 -1 c-494 -1 -920 -5 -948 -9z"/>
<path d="M2720 4655 l0 -465 35 0 c19 0 80 -9 137 -20 667 -129 1189 -659
1314 -1335 26 -140 26 -440 0 -580 -125 -676 -647 -1206 -1314 -1335 -57 -11
-118 -20 -137 -20 l-35 0 0 -450 0 -451 938 3 937 3 70 23 c203 68 350 213
422 417 l28 80 0 2035 0 2035 -28 80 c-72 204 -208 340 -412 412 l-80 28 -937
3 -938 3 0 -466z"/>
<path d="M1629 3126 c-36 -13 -85 -34 -107 -46 -36 -20 -42 -29 -42 -56 l0
-32 74 -7 c40 -4 78 -10 84 -14 6 -3 53 -265 105 -581 l93 -575 25 3 c78 9 96
21 156 105 255 353 469 764 564 1081 16 54 29 103 29 108 0 43 -249 51 -275 9
-2 -5 4 -69 16 -142 11 -74 18 -147 16 -164 -9 -53 -105 -266 -187 -415 -44
-80 -104 -190 -132 -245 l-52 -100 -12 115 c-26 244 -124 901 -139 930 -8 16
-24 34 -34 40 -32 17 -112 11 -182 -14z"/>
<path d="M3120 3134 c-213 -46 -333 -193 -317 -387 12 -137 70 -215 292 -389
103 -81 145 -142 145 -209 0 -28 -6 -64 -14 -82 -31 -71 -130 -134 -229 -144
l-52 -5 -115 105 c-110 101 -116 105 -133 89 -27 -24 -53 -79 -71 -149 -9 -34
-16 -65 -16 -71 0 -15 93 -52 174 -69 105 -22 287 -13 388 20 136 44 226 117
275 224 23 49 25 65 21 146 -6 140 -58 221 -221 344 -177 134 -217 187 -217
288 0 110 65 173 198 191 l51 6 95 -98 c81 -85 97 -97 113 -88 23 14 90 147
98 195 5 36 5 37 -47 58 -104 42 -289 53 -418 25z"/>
</g>
</svg>
